<?xml version="1.0" encoding="utf-8"?>
<!-- Generator: Adobe Illustrator 28.0.0, SVG Export Plug-In . SVG Version: 6.00 Build 0)  -->
<svg version="1.1" id="Camada_1" xmlns="http://www.w3.org/2000/svg" xmlns:xlink="http://www.w3.org/1999/xlink" x="0px" y="0px"
	 viewBox="0 0 1728.8 1154.8" style="enable-background:new 0 0 1728.8 1154.8;" xml:space="preserve">
<style type="text/css">
	.st0{fill:#FFFFFF;}
</style>
<g>
	<g>
		<g>
			<path class="st0" d="M0.5,886.5L0,563.2h329.1c19.7,0,37.2,4.8,52.6,14.3c15.3,9.5,26.6,22.7,33.7,39.5c4.8,11.3,7.3,28,7.3,49.9
				c0,18.1-4.7,34.7-14.1,49.9c10.7,10.3,17.6,21.9,20.8,34.7c3.2,12.8,4.8,27.7,4.8,44.8c0,25.2-8.5,46.5-25.4,64
				c-17,17.4-39.3,26.2-67.1,26.2H0.5z M76.6,692.6h245.2c16.2,0,24.2-8.1,24.2-24.2v-17.9c0-15.8-8.1-23.7-24.2-23.7H76.6V692.6z
				 M76.6,756.1V823h256.9c16.2,0,24.2-8.1,24.2-24.2v-18.9c0-8.4-1.9-14.5-5.6-18.2c-3.7-3.7-9.9-5.6-18.7-5.6H76.6z"/>
			<path class="st0" d="M871.9,886.5H458V563.2h413.9v63.5H534.1v65.9h317v63.5h-317V823h337.8V886.5z"/>
			<path class="st0" d="M868,886.5l234.6-323.3h59.1l234.6,323.3h-93.1l-52.3-71.7h-237l-52.3,71.7H868z M1132.2,650.9l-72.7,99.8
				h145.4L1132.2,650.9z"/>
			<path class="st0" d="M1472.9,626.7h-179.8v-63.5h435.7v63.5H1549v259.8h-76.1V626.7z"/>
		</g>
		<g>
			<path class="st0" d="M306.7,980.4c10.9,0,22.5,3.1,31.9,11.1c8.7,7.4,14.6,19.1,15.4,32.7h-34.3c-0.3-6.6-2.3-9.3-4.9-11.5
				c-2.8-2.4-7.4-3.9-12.5-3.9H180.3c-5.1,0-9.7,1.6-12.5,3.9c-2.8,2.4-4.9,5.3-4.9,13.1v8.9c0,7.8,2.1,10.7,4.9,13.1
				c2.8,2.4,7.4,3.9,12.5,3.9H312c10.9,0,22.5,3.1,31.9,11.1c9.4,8,15.5,21,15.5,36l-0.1,8.9c-0.2,15-6.1,28-15.5,36
				c-9.4,8-21,11.1-31.9,11.1H176c-10.9,0-22.5-3.1-31.9-11.1c-9.4-8-15.5-21-15.5-36l0.1-5.2h34.2c0,3.5,0,6.9,0,6.9
				c0,7.8,2.1,10.7,4.9,13.1c2.8,2.4,7.4,3.9,12.5,3.9h127.3c5.1,0,9.7-1.6,12.5-3.9c2.8-2.4,4.9-5.4,4.9-13.1c0,0,0-10.1,0-15.4
				c-0.5-5.5-2.4-8-4.8-10c-2.8-2.4-7.4-3.9-12.5-3.9H176c-10.9,0-22.5-3.1-31.9-11.1c-9.1-7.8-15.2-20.3-15.5-34.8l0,0v-6.7
				c0-15,6.1-28,15.5-36c9.4-8,21-11.1,31.9-11.1H306.7z"/>
			<path class="st0" d="M558.1,980.4c10.9,0,22.5,3.1,31.9,11.1c9.4,8,15.5,21,15.5,36v21.1c0,15-6.1,28-15.5,36s-21,11.1-31.9,11.1
				H414.3v59.1h-34.3V980.4H558.1z M414.3,1067.4h139.6c5.1,0,9.7-1.6,12.5-3.9c2.8-2.4,4.9-5.3,4.9-13.1v-24.5
				c0-7.8-2.1-10.7-4.9-13.1s-7.4-3.9-12.5-3.9H414.3V1067.4z"/>
			<path class="st0" d="M818.6,980.4c10.9,0,22.5,3.1,31.9,11.1c9.4,8,15.5,21,15.5,36v80.2c0,15-6.1,28-15.5,36
				c-9.4,8-21,11.1-31.9,11.1H669c-10.9,0-22.5-3.1-31.9-11.1c-9.4-8-15.5-21-15.5-36v-80.2c0-15,6.1-28,15.5-36
				c9.4-8,21-11.1,31.9-11.1H818.6z M660.8,1012.7c-2.8,2.4-4.9,5.3-4.9,13.1v83.6c0,7.8,2.1,10.7,4.9,13.1
				c2.8,2.4,7.4,3.9,12.5,3.9h141c5.1,0,9.7-1.6,12.5-3.9c2.8-2.4,4.9-5.3,4.9-13.1c0,0,0-83.6,0-83.6c0-7.8-2.1-10.7-4.9-13.1
				c-2.8-2.4-7.4-3.9-12.5-3.9h-141C668.2,1008.8,663.6,1010.3,660.8,1012.7z"/>
			<path class="st0" d="M890.1,980.4h178.2c10.9,0,22.5,3.1,31.9,11.1c9.4,8,15.5,21,15.5,36v21.1c0,13.2-4.7,24.9-12.3,32.9
				c7.5,8.1,12.3,19.8,12.3,32.9v40.3h-34.3c0-3.6,0-42,0-42c0-7.8-2.1-10.7-4.9-13.1c-2.8-2.4-7.4-3.9-12.5-3.9H924.4v59.1h-34.3
				V980.4z M924.4,1067.4H1064c5.1,0,9.7-1.6,12.5-3.9c2.8-2.4,4.9-5.3,4.9-13.1v-24.5c0-7.8-2.1-10.7-4.9-13.1
				c-2.8-2.4-7.4-3.9-12.5-3.9H924.4V1067.4z"/>
			<path class="st0" d="M1360.6,980.4v28.3h-99.5v146h-34.3v-146h-99.5v-28.3H1360.6z"/>
			<path class="st0" d="M1547.5,980.4c10.9,0,22.5,3.1,31.9,11.1c8.7,7.4,14.6,19.1,15.4,32.7h-34.3c-0.3-6.6-2.3-9.3-4.9-11.5
				c-2.8-2.4-7.4-3.9-12.5-3.9h-122.2c-5.1,0-9.7,1.6-12.5,3.9c-2.8,2.4-4.9,5.3-4.9,13.1v8.9c0,7.8,2.1,10.7,4.9,13.1
				c2.8,2.4,7.4,3.9,12.5,3.9h131.7c10.9,0,22.5,3.1,31.9,11.1c9.4,8,15.5,21,15.5,36l-0.1,8.9c-0.2,15-6.1,28-15.5,36
				c-9.4,8-21,11.1-31.9,11.1h-135.9c-10.9,0-22.5-3.1-31.9-11.1c-9.4-8-15.5-21-15.5-36l0.1-5.2h34.2c0,3.5,0,6.9,0,6.9
				c0,7.8,2.1,10.7,4.9,13.1c2.8,2.4,7.4,3.9,12.5,3.9h127.3c5.1,0,9.7-1.6,12.5-3.9c2.8-2.4,4.9-5.4,4.9-13.1c0,0,0-10.1,0-15.4
				c-0.5-5.5-2.4-8-4.8-10c-2.8-2.4-7.4-3.9-12.5-3.9h-131.7c-10.9,0-22.5-3.1-31.9-11.1c-9.1-7.8-15.2-20.3-15.5-34.8l0,0v-6.7
				c0-15,6.1-28,15.5-36c9.4-8,21-11.1,31.9-11.1H1547.5z"/>
		</g>
	</g>
	<g>
		<g>
			<path class="st0" d="M1728.8,375.7l-68.5,1.5l-68.5,1.3c-45.6,0.8-91.3,1.6-137,2.3l-51.3,0.7l-55.5,0.8l-12.6,0.2l-17.6,0.2
				l-68.5,0.9l-68.5,0.7l-8.6,0.1l-2.4-6.6l-22.3-61.8l-7.8-21.7l-22.1,75.8l-34.3,116.2l-14.3,48.2l-17.2-47.9l-38.6-107.2
				l-38.2-107.3l-38-107.4c-6.8-19-13.4-38-20.1-56.9l-16,49.2L868.3,257l-32.9,99.8l-33.2,99.8l-10.3,30.9l-17.7-28.6l-45-72.7
				l-83.4-0.7l-26.7-0.3l-16.3-0.1l-41.7-0.4l-7.6-0.1c-61.5-0.7-123-1.4-184.5-2.2c-61.5-0.8-123-1.8-184.5-2.9
				c-61.5-1-123-2.3-184.6-3.7c61.5-1.4,123-2.7,184.6-3.7c61.5-1.1,123-2,184.5-2.9c57.3-0.7,114.5-1.4,171.8-2.1
				c4.2,0,8.5-0.1,12.7-0.1l41.1-0.4l13.8-0.1l37.4-0.4l92.3-0.8l8.5-0.1l3.9,6l32.2,49.5l21.6-69.6l31.4-100.1l31.7-100.1l15.9-50
				l16-50L915.6,0l17.8,50.5c12.6,35.8,25.3,71.6,37.8,107.4l37.6,107.5l37.3,107.5l20.7,60.1l21.5-67.9l36.9-115.7l13-40.8
				l13.2,40.5l20.3,62.2l18.1,55.8l59.5,0.6l68.5,0.9l31.4,0.5l3.7,0l63.9,0.9l37.9,0.5c45.7,0.7,91.4,1.4,137,2.3l68.5,1.3
				L1728.8,375.7z"/>
		</g>
	</g>
</g>
</svg>
